<svg xmlns="http://www.w3.org/2000/svg" version="1.1" viewBox="0 0 32 32" class="{% slot 'css_classes' %}h-10 w-auto{% endslot %}">
  <path transform="matrix(.042789 0 0 .042789 -20.627 -15.029)" d="m774.47 666.14c9.7138 2.9713 19.428 5.9426 29.713 10.8 10.285 4.857 21.142 11.599 31.998 18.342 9.5995 28.799 19.199 57.597 19.37 81.31 0.17132 23.713-9.0852 42.341-24.456 53.311s-36.855 14.285-55.997 11.828-35.941-10.685-46.683-23.313c-10.742-12.628-15.428-29.655-16.171-45.94s2.457-31.827 11.714-45.369c9.2568-13.542 24.57-25.084 33.998-34.912 9.4281-9.8282 12.971-17.942 16.513-26.056z" stroke="#0b1b25" stroke-width=".2"/>
  <g>
   <g transform="matrix(.042789 0 0 .042789 -20.627 -15.029)" fill="#4198d7" stroke="#4198d7" stroke-width=".3">
    <path d="m1006 596c-6.25 21.78 1.77 45.35 16 62 8.11 9.49 17.87 15.47 28 22 8.72 5.63-3.9 15.03-8.25 21.75s-13.74 13.31-19.75 18.25c-19.69 21.94-54.06 32.58-83 32-7.85-0.16-14.2-2.5792-21-5-2.0203-0.71924-3.9402-1.1796-6-2-1.4302-0.5696-2.7899-1.4003-4-2-2.1999-1.0903-4.7101-1.8299-7-3-2.7201-1.3899-6.35-2.36-10.445-4.68s-8.9544-7.2008-13.555-10.32c-4.8094-3.2608-10.08-6.42-15-10l-7-6c-5.4472-4.669-12.64-8.16-18-13-1.77 1.08-0.92 4.11-1 6-0.0294 0.73772-0.0475 1.4752-0.06 2.2116-0.098 5.7823 0.15337 11.502-1.94 16.788 9.3979 8.5401 13.715 19.765 16.258 31.218 2.1096 9.5001 0.60803 19.617-1.2584 29.167-1.0136 5.1867-3.1287 10.127-5.3299 14.932-1.7367 3.7905-3.7059 7.5182-6.1758 10.877-5.1336 6.9818-10.715 13.936-17.752 18.993-7.4061 5.3214-15.9 9.8766-24.903 11.329-10.103 1.6299-20.817-0.0456-30.526-3.2804-7.9707-2.6556-15.57-7.096-21.668-12.875-7.6749-7.2735-14.283-16.336-17.645-26.362-3.8293-11.418-5.0041-24.728-2.07-36.07 2.9359-11.348 7.03-20.469 13.32-28.68s11.032-12.562 17.618-17.625c5.2935-4.0691 11.762-6.3585 17.331-10.042 4.4454-2.9401 11.53-4.4154 12.791-9.5938 2.5382-10.425-3.87-25.37-13.99-28.99-1.71-0.11-2.49-0.53-4-1-1.72-0.53-3.59-1.47-5-2-5.03-1.9-10.78-3.54-16-5-2.25-0.63-5.1-1.47-7-2-29.12-8.12-64.17-11.75-94.78-8.78-30.6 2.97-52.63 13.78-79.22 26.78-11.31 7.45-24.38 19.78-32 31-7.39 14-13.94 24.82-15.67 41.33s4.34 33.59-5.41 48.59c-9.74 15 4.55 25.67 19.01 30.15 14.46 4.49 34.68 4.2 50.06 1.92s33.77-9.19 49.01-2.99c5.29 2.15 12.72 5.93 12 13-11.81-4.56-24.57-9.79-37.96-5.935s-27.291 4.0999-40.04 4.935c-5.6546 0.37041-11.353 0.46739-17 0-4.0414-0.33447-8.0908-0.88712-12-2-1.6408-0.46712-3.3811-0.56581-5-1-6.6211-1.7758-11.134-7.0247-17-9-1.1273-0.3796-2.06-0.43-3-1 0.24 1.87 1.03 3.05 1 5 2.17 6.02 6.4528 14.327 13.133 20.717s15.137 16.673 23.867 24.283c13.24 11.54 27.35 22.55 42 32 32.16 20.75 69.16 35.37 106 43 16.71 3.46 34.59 6 52 6h8c-0.03-2.37-2.5-3.72-3-6-7.19-4.78-20.62-0.31-29-3-8.39-2.69-19.5-2.38-28.02-4.98-8.53-2.59-18.01-3.66-26.2-6.8-8.19-3.13-17.02-4.77-24.85-8.15-7.84-3.37-15.51-6.41-23.01-9.99-7.49-3.59-14.46-7.32-21.17-11.83-6.7-4.52-13.54-8.32-19.83-13.17s-12.25-9.68-18.17-14.83-12-9.88-17.5-15.5c-5.51-5.62-11.15-11.46-15.25-17.75 26.78 7.83 56.24-2.91 81.22-6.78s40.56 22.15 63.01 28.55c22.45 6.41 53 17.61 75.47 5.92 22.46-11.68 49.24-20.94 73.52-10.91 24.28 10.02 50.96 5.34 73.47-4.09 22.52-9.42 40.8-19 60.39-31.61 19.6-12.61 34.79-25.18 52.15-39.85s28.69-32.76 44.02-47.98 22.19-41.26 44.97-47.03c22.78-5.76 52.49-5.25 72.78-20.22 4.34-2.34 8.09-5.66 12-9 11.1-9.48 17.95-21.82 23-35 0.96-3.84 2.95-18.88-2-18-8.35 9.93-27.17 11.52-39.98 9.98-12.8-1.54-30.74-4.21-44-0.96-13.25 3.26-18.76 12.57-30.02 18.98-0.22 0.13-0.23 3.16-2 2-1.47-9.36-7.67-18.4-16-23-1.11-0.62-2.73-1.42-4-2-3.96-1.81-9.131-3.5773-13-5-1.271-0.46734-2.5887-1.0536-3.8292-1.5123-1.8695-0.6913-3.651-1.7374-5.1708-2.4877-4.8202-2.3797-8.94-4.4-13-8-4.46-3.97-7.17-7.9-10-13-1.04-1.17-0.65-3.27-2-4-6 5.63-11.7 13-14 21m-341 209c-3.13 3.38 3.06 13.08 7.22 9.22s-2.65-12.1-6.22-10.22c13.62-9.82 28.91 11.84 15.75 21.75s-29.7-11.52-16.75-20.75z"/>
    <path d="m752 946c-6.57-10.62-11.96-25.16-10-38s6.33-24.25 17.25-31.75c10.92-7.51 23.91-10.44 36.75-12.25s28.76-0.49 39.08 7.92 16.55 15.57 19.7 29.3c3.14 13.74 21.88 12.47 32.22 16.78 10.91 4.54 24.97-6.23 35.3-10.7 10.33-4.46 22.06-12.11 31.62-18.38 9.55-6.28 20.36-12.76 29.08-19.92 21.51-17.67 42.69-40.06 59-62 1.6203-2.1797 3.5489-4.8608 5-7 4.5589-6.7208 10.77-14.67 14-22 3.921-8.8979 8.5917-16.689 12.23-25.77 3.6417-9.0893 7.4022-17.365 10.85-26.15 3.5064-8.934 7.33-16.61 10-27 2.66-10.4 17.5-9 26.92-10.08 17.28-4.08 34.7-12.04 49-23-20.29 14.97-50 14.46-72.78 20.22-22.78 5.77-29.64 31.81-44.97 47.03s-26.66 33.31-44.02 47.98-32.55 27.24-52.15 39.85c-19.59 12.61-37.87 22.19-60.39 31.61-22.51 9.43-49.19 14.11-73.47 4.09-24.28-10.03-51.06-0.77-73.52 10.91-22.47 11.69-53.02 0.49-75.47-5.92-22.45-6.4-38.03-32.42-63.01-28.55s-54.44 14.61-81.22 6.78c4.1 6.29 9.74 12.13 15.25 17.75 5.5 5.62 11.58 10.35 17.5 15.5s11.88 9.98 18.17 14.83 13.13 8.65 19.83 13.17c6.71 4.51 13.68 8.24 21.17 11.83 7.5 3.58 15.17 6.62 23.01 9.99 7.83 3.38 16.66 5.02 24.85 8.15 8.19 3.14 17.67 4.21 26.2 6.8 8.52 2.6 19.63 2.29 28.02 4.98 8.38 2.69 21.81-1.78 29 3z"/>
   </g>
   <g transform="matrix(.042789 0 0 .042789 -20.627 -15.029)" fill="None" fill-opacity="0" stroke="#394c68" stroke-width=".3">
    <path d="m665 805c-12.95 9.23 3.59 30.66 16.75 20.75s-2.13-31.57-15.75-21.75c3.57-1.88 10.38 6.36 6.22 10.22s-10.35-5.84-7.22-9.22z"/>
   </g>
   <path transform="matrix(.042789 0 0 .042789 -20.627 -15.029)" d="m729.22 783.79c0.77863-0.81299 1.5076-8.6814 2.916-15.752s3.5292-13.444 7.1668-19.776c3.6377-6.3323 9.026-13.031 13.632-17.707 4.6058-4.6763 8.5131-7.4344 12.028-9.5409 3.5152-2.1065 6.6382-3.5614 8.8159-4.8141 2.1777-1.2527 3.41-2.3032 4.1373-2.8689 0.72728-0.56566 0.9495-0.64646 1.5859-1.7273 0.63637-1.0808 1.6868-3.1616 0.28278-3.4444-1.4041-0.28284-5.2626 1.2323-10.02 3.3838-4.7576 2.1515-10.414 4.9394-15.444 8.8788-5.0303 3.9394-9.4343 9.0303-13.374 14.848-3.9394 5.8182-7.4141 12.364-9.697 18.626s-3.3737 12.242-3.505 18.354c-0.1313 6.1112 0.69696 12.353 1.4756 11.54z" fill="#86b9dc" stroke="#86b9dc" stroke-width=".2"/>
   <g transform="matrix(.042789 0 0 .042789 -20.627 -15.029)" fill="None" fill-opacity="0" stroke="#e1f4f6" stroke-width=".3">
    <path d="m761 948s-0.16 0.56 0 1c6.99 6.69 11.95 15.95 19 23 15.17 15.17 30.25 25.92 48.31 36.7 18.05 10.77 49.21 14.92 68.61 9.22 19.41-5.69 42.12-28.45 31.08-48.92-1.46-2.71-5.48-6.41-8-8-1.02-0.64-2.78-1.37-4-2-4.83-2.5-7.68-4-11-8-7.24-8.73-9.88-22.96-22-27-13-4.33-32.61-3.36-36.08-19.92-3.46-16.57-11.27-22.99-24.9-30.1-13.62-7.12-32.29-1.32-45.99 3.05-13.71 4.36-23.87 13.89-26.1 28.9-2.23 15 3.16 29.32 11.07 42.07z"/>
   </g>
  </g>
  <g>
   <g transform="matrix(.042789 0 0 .042789 -20.627 -15.029)" fill="None" stroke="None">
    <path d="m665 805c-12.95 9.23 3.59 30.66 16.75 20.75s-2.13-31.57-15.75-21.75c3.57-1.88 10.38 6.36 6.22 10.22s-10.35-5.84-7.22-9.22z"/>
   </g>
   <g transform="matrix(.042789 0 0 .042789 -20.627 -15.029)" fill="#4198d7" stroke="None">
    <path d="m761 948s-0.16 0.56 0 1c6.99 6.69 11.95 15.95 19 23 15.17 15.17 30.25 25.92 48.31 36.7 18.05 10.77 49.21 14.92 68.61 9.22 19.41-5.69 42.12-28.45 31.08-48.92-1.46-2.71-5.48-6.41-8-8-1.02-0.64-2.78-1.37-4-2-4.83-2.5-7.68-4-11-8-7.24-8.73-9.88-22.96-22-27-13-4.33-32.61-3.36-36.08-19.92-3.46-16.57-11.27-22.99-24.9-30.1-13.62-7.12-32.29-1.32-45.99 3.05-13.71 4.36-23.87 13.89-26.1 28.9-2.23 15 3.16 29.32 11.07 42.07z" fill="#4198d7"/>
   </g>
   <ellipse transform="matrix(.69926 .71487 -.62477 .78081 0 0)" cx="22.037" cy="3.3699" rx="1.6765" ry="2.1763" fill="#b4e5fd" stroke="#000" stroke-opacity=".19913" stroke-width=".053684"/>
  </g>
  <path transform="matrix(.042789 0 0 .042789 -20.627 -15.029)" d="m824.03 708.95c-1.8428 0.0714-3.9284 0.0143-7.1425-0.69996-3.2141-0.71425-7.5568-2.0856-11.542-3.3713-3.9855-1.2856-7.6139-2.4856-10.042-3.1284-2.4284-0.64282-3.657-0.72853-4.5569-1.0142-0.89995-0.2857-1.4714-0.77139-1.9142-0.95709-0.44284-0.18571-0.7571-0.0714-1.2428 1.3428-0.48569 1.4142-1.1428 4.1284-1.2285 6.3568-0.0857 2.2285 0.39998 3.9712 1.7856 5.3569 1.3857 1.3857 3.6712 2.4142 7.671 3.4855 3.9998 1.0714 9.7138 2.1856 14.199 3.057 4.4855 0.87139 7.7425 1.4999 10.685 1.1428 2.9427-0.35712 5.5711-1.6999 7.0425-3.357 1.4714-1.6571 1.7856-3.6284 1.8142-5.1283 0.0286-1.4999-0.22856-2.5284-1.1571-2.9427-0.92853-0.41426-2.5284-0.21427-4.3712-0.14285z" fill="#8bbcdc" fill-opacity=".97255" stroke="#8bbcdc" stroke-opacity=".97255" stroke-width=".2"/>
  <g transform="matrix(.042789 0 0 .042789 -20.627 -15.029)" fill="#4198d7" stroke="#86b9dc" stroke-width=".3">
   <path d="m680 950c-14.53-3.44-31.49-7.67-44.78-14.22-13.29-6.56-27.68-9.94-39.22-18.78 1.64 6.77-1.1834 17.09 0.67 25.33 1.5529 6.9045 4.3668 13.734 8.58 19.42 3.7991 5.1273 8.19 8.45 14.5 12.5 6.32 4.05 12.88 6.39 20.23 7.77 7.34 1.39 17.52 2.3 25.02 1.98s16.49-1.65 18-10-3.62-15.83-3-24z" fill="#4198d7"/>
  </g>
 </svg>
